PathFileType	4	(X/Y/Z)	C:/Users/opensim2020/Desktop/walking_exp_matlab/subject06_walking21_straight_03.trc	
DataRate	CameraRate	NumFrames	NumMarkers	Units	OrigDataRate	OrigDataStartFrame	OrigNumFrames	
100.00	100.00	6	44	mm	100.00	1848	110	
Frame#	Time	LFHD			RFHD			LBHD			RBHD			C7			T10			CLAV			STRN			RBAK			LSHO			LUPA			LELB			LFRM			LWRA			LWRB			LFIN			RSHO			RUPA			RELB			RFRM			RWRA			RWRB			RFIN			LASI			RASI			LPSI			RPSI			LTHI			LKNE			LTIB			LANK			LHEE			LTOE			RTHI			RKNE			RTIB			RANK			RHEE			RTOE			*39			*40			*41			*42			*43			
		X1	Y1	Z1	X2	Y2	Z2	X3	Y3	Z3	X4	Y4	Z4	X5	Y5	Z5	X6	Y6	Z6	X7	Y7	Z7	X8	Y8	Z8	X9	Y9	Z9	X10	Y10	Z10	X11	Y11	Z11	X12	Y12	Z12	X13	Y13	Z13	X14	Y14	Z14	X15	Y15	Z15	X16	Y16	Z16	X17	Y17	Z17	X18	Y18	Z18	X19	Y19	Z19	X20	Y20	Z20	X21	Y21	Z21	X22	Y22	Z22	X23	Y23	Z23	X24	Y24	Z24	X25	Y25	Z25	X26	Y26	Z26	X27	Y27	Z27	X28	Y28	Z28	X29	Y29	Z29	X30	Y30	Z30	X31	Y31	Z31	X32	Y32	Z32	X33	Y33	Z33	X34	Y34	Z34	X35	Y35	Z35	X36	Y36	Z36	X37	Y37	Z37	X38	Y38	Z38	X39	Y39	Z39	X40	Y40	Z40	X41	Y41	Z41	X42	Y42	Z42	X43	Y43	Z43	X44	Y44	Z44	

83	0.820	-1085.16809	331.54654	1637.28369	-955.43793	317.08789	1616.66797	-1105.51489	201.91272	1579.83398	-977.91980	188.46376	1564.03723	-1052.43640	198.25313	1420.42358	-1045.21521	156.72714	1092.41479	-1048.97961	308.49338	1342.03076	-1061.97351	345.71536	1166.88171	-984.49158	119.07336	1249.38452	-1210.44556	256.65353	1379.54041	-1300.50488	283.54398	1189.34302	-1324.74402	307.83322	1081.81042	-1328.54456	419.32944	985.03705	-1260.92212	528.49402	948.17078	-1305.10010	501.45322	900.72021	-1291.24158	587.96832	882.53302	-888.92035	252.88675	1370.81946	-812.98224	164.47661	1187.20630	-799.22461	140.92444	1067.91895	-777.65741	112.01469	951.86273	-791.11017	122.07183	797.26208	-765.08337	64.90917	822.45117	-756.30634	66.05025	737.93225	-1166.16150	323.27805	929.77875	-946.24963	343.52524	938.67084	-1118.16724	167.94008	959.44019	-951.65619	191.40515	958.37860	-1212.06824	204.24997	626.19904	-1189.60962	166.47099	464.25357	-1175.23267	10.45201	254.57875	-1127.18262	-79.29059	108.32484	-1081.32153	-121.59524	113.96430	-1126.25281	41.97599	32.96116	-881.58087	369.80313	613.13055	-915.84900	422.29712	502.16122	-924.72382	469.30740	243.10104	-972.20056	528.26929	66.78873	-1021.34735	503.36990	33.61612	-963.64532	681.24347	79.78221	-1036.26880	223.89905	1668.39502	-1044.99683	349.03958	1540.81372									 
84	0.830	-1083.37244	345.81192	1636.98535	-953.70325	331.53458	1616.23413	-1103.74805	216.31854	1579.31445	-976.11072	202.95596	1563.42285	-1050.49146	213.23097	1419.60522	-1043.63403	172.89268	1091.87280	-1047.28528	323.85324	1341.83484	-1060.56177	361.92126	1166.93970	-982.67920	135.02956	1248.61511	-1208.52100	271.27420	1379.10364	-1298.53418	298.24945	1189.11011	-1322.74951	322.41544	1081.66479	-1326.82849	434.40631	985.73456	-1259.66370	544.33978	950.41534	-1303.49146	517.50549	902.22131	-1289.89673	604.14545	885.22449	-887.14490	268.42365	1370.42566	-811.11877	180.73573	1186.58252	-797.52722	157.47643	1067.22827	-775.84552	128.69913	951.21680	-789.57507	138.53606	796.61084	-763.32355	81.44698	821.84198	-754.65106	82.38586	737.27911	-1165.17102	339.88916	929.73608	-945.42969	360.51135	938.95703	-1117.02100	185.11723	958.96686	-950.73871	208.33971	958.08087	-1212.10461	222.09903	624.83698	-1190.44031	185.81044	462.38974	-1176.11487	22.40801	258.53079	-1129.09106	-73.47263	116.24097	-1083.47705	-115.27792	124.35886	-1126.36475	42.78000	32.94147	-882.55890	388.95688	614.23547	-918.22266	440.61575	503.69092	-925.57959	480.35828	240.97578	-974.39301	532.19275	63.30817	-1023.32477	506.52109	32.43976	-966.56158	685.82501	69.79146	-1034.34387	238.29465	1667.89038	-1043.10742	363.60858	1540.70691									 
85	0.840	-1081.67615	360.08188	1637.09998	-951.88367	346.04047	1616.21936	-1101.85876	230.63129	1578.97241	-974.19305	217.59586	1563.11938	-1048.33179	228.15294	1419.10010	-1041.92871	189.34903	1091.23254	-1045.48853	339.31305	1341.99133	-1058.94348	378.35913	1167.31152	-980.71710	150.94417	1247.92639	-1206.50574	285.89178	1378.95703	-1296.08813	312.68323	1188.71521	-1320.57520	336.72565	1081.62610	-1325.26550	449.08200	986.09393	-1258.43823	559.30078	951.57782	-1301.37451	532.28198	902.75720	-1288.81775	619.42273	886.82043	-885.21045	284.02933	1370.33826	-809.11316	197.09125	1186.21045	-795.56464	174.25156	1066.73938	-773.95978	145.51117	950.70660	-788.73608	155.29105	795.81696	-761.54755	98.88282	821.14844	-753.02295	99.84188	736.54999	-1164.36877	356.87180	929.92151	-944.59491	377.32117	939.19794	-1115.80676	201.33998	958.53900	-949.05115	225.20464	958.25079	-1212.23486	240.72758	623.30066	-1191.32593	206.61078	460.28235	-1176.76013	35.64199	262.98914	-1130.63672	-66.14487	125.09254	-1085.01855	-106.98352	136.01556	-1126.31982	43.49056	32.79747	-884.04413	407.66650	615.34009	-920.26019	457.63293	504.28708	-928.13806	490.84219	240.07816	-974.95319	538.72784	64.12450	-1023.92822	511.04562	36.57955	-966.08350	693.76495	59.92761	-1032.43420	252.37090	1667.57153	-1041.46704	378.51352	1540.76282									 
86	0.850	-1079.86597	374.20944	1638.04187	-949.97174	360.39795	1617.08447	-1099.88269	244.99211	1579.16260	-972.21112	232.18423	1563.05164	-1046.07605	243.25673	1419.56653	-1040.98621	205.73242	1091.12842	-1043.61511	354.75125	1342.81458	-1057.22278	394.17374	1168.17822	-978.53943	166.64169	1247.30774	-1204.64050	300.38214	1379.25208	-1293.80188	327.12866	1188.64136	-1318.19910	350.70218	1081.54395	-1323.22205	462.81238	985.98193	-1257.32849	573.61383	951.82684	-1299.87573	546.44757	902.71429	-1287.96716	633.74072	887.32977	-883.13617	299.69043	1370.72266	-806.97766	213.65129	1186.06714	-793.70001	191.59370	1066.32422	-771.99432	163.40996	950.14081	-786.83459	173.91473	795.55414	-759.81165	117.05258	820.44452	-751.44586	118.44419	735.90808	-1163.72815	373.95352	930.30786	-943.92609	394.35132	940.10455	-1114.86121	218.01959	958.17743	-947.60535	241.95880	959.29694	-1212.51001	260.10547	621.69183	-1192.14929	228.82968	458.13492	-1177.38843	50.13814	268.44128	-1131.74768	-57.16805	135.47026	-1086.47302	-96.26507	148.91034	-1125.92969	44.12609	32.75250	-884.03235	424.91971	617.11499	-919.37921	473.70123	505.69138	-925.69556	504.52072	242.04114	-972.55188	547.14307	65.66574	-1021.01477	515.73694	38.91859	-964.50439	699.93060	55.18227	-1030.45471	266.38849	1667.88000												 
87	0.860	-1077.97058	388.27078	1639.96155	-948.07336	374.63010	1618.71606	-1097.78516	259.25711	1580.04504	-970.11865	246.74707	1563.88184	-1043.78479	258.55203	1420.75098	-1040.33093	221.62004	1091.98328	-1041.68250	369.91833	1344.15149	-1055.40747	409.56326	1169.51318	-976.18896	182.16801	1247.48682	-1202.99854	315.05972	1380.23450	-1291.67041	341.42371	1189.03381	-1315.74304	364.50391	1081.66504	-1321.63232	476.29245	985.69269	-1256.36096	587.34094	951.24731	-1298.61658	559.69019	902.09967	-1287.38293	647.04968	886.80823	-880.89709	315.40585	1371.58032	-804.75745	230.44257	1186.34961	-791.60217	209.26518	1066.32935	-770.11212	181.70464	949.84943	-785.52130	192.91148	795.39288	-758.02875	136.21613	820.01624	-749.89789	137.96875	735.51434	-1162.89807	390.54611	931.08179	-943.19366	411.49374	941.66541	-1114.62073	235.09673	958.24573	-947.21191	258.31067	961.66870	-1212.81274	280.25516	620.44873	-1193.21570	252.18561	456.45847	-1177.82837	67.06208	274.34326	-1132.86926	-45.27137	146.27243	-1087.32373	-82.38115	162.17897	-1125.32373	45.20516	32.87164	-882.76282	440.85864	620.57458	-917.62720	488.78806	508.84604	-922.28033	518.13037	245.41345	-971.19543	551.10321	64.69366	-1019.74310	518.04608	40.46217	-962.51630	702.51587	49.22613	-1028.37976	280.12112	1668.86597	-1037.71460	408.45288	1542.71765									 
88	0.870	-1075.99951	401.97400	1641.80200	-946.24420	388.88486	1620.72717	-1095.64355	273.43921	1581.33594	-967.96106	261.26401	1565.18982	-1041.69666	273.70743	1422.43213	-1039.92505	237.22688	1093.33728	-1039.76965	384.86050	1345.81372	-1053.59924	424.82202	1171.37988	-973.53412	197.50044	1248.89661	-1201.29492	330.18427	1381.65845	-1289.00928	355.31320	1189.75781	-1312.98950	377.95505	1082.13123	-1319.74329	488.88840	985.16669	-1255.39685	600.13000	949.86145	-1297.59680	571.91302	901.11536	-1287.14294	659.29761	885.36407	-878.80957	331.07086	1372.87488	-802.43634	247.69713	1187.01184	-789.56012	227.34114	1066.72302	-768.51202	201.04704	949.82855	-784.74036	212.55099	795.50726	-756.10663	156.27980	819.75549	-748.37775	158.66881	735.26599	-1161.87207	407.08038	932.41595	-942.23645	428.35776	944.22235	-1115.08984	251.25369	958.59290	-947.92627	274.25104	964.42462	-1213.02295	301.01685	619.72430	-1194.42236	276.36682	455.38879	-1178.22693	86.13868	280.81863	-1133.99646	-30.48678	156.59987	-1087.69446	-65.41268	174.71417	-1124.94617	47.49098	33.18862	-881.05304	456.15070	624.28534	-914.94977	504.08810	512.14172	-919.92828	528.42719	247.42747	-970.33441	551.15015	65.36217	-1018.82227	518.61755	41.15968	-961.30920	703.13513	43.59774	-1026.35840	293.95175	1670.30603	-1035.83313	423.77002	1543.18872									 
